<?xml version="1.0" standalone="no"?>
<!DOCTYPE svg PUBLIC "-//W3C//DTD SVG 20010904//EN"
 "http://www.w3.org/TR/2001/REC-SVG-20010904/DTD/svg10.dtd">
<svg version="1.0" xmlns="http://www.w3.org/2000/svg"
 width="2000.000000pt" height="1664.000000pt" viewBox="0 0 2000.000000 1664.000000"
 preserveAspectRatio="xMidYMid meet">

<g transform="translate(0.000000,1664.000000) scale(0.100000,-0.100000)"
fill="#000000" stroke="none">
<path d="M9903 16240 c-29 -16 -94 -70 -145 -118 -929 -880 -1583 -1500 -2318
-2197 -1899 -1801 -2203 -2088 -2440 -2306 -479 -439 -519 -484 -535 -590 -10
-67 10 -126 59 -175 68 -69 100 -74 448 -74 l298 0 0 -562 c0 -776 14 -1027
76 -1373 83 -467 202 -831 414 -1260 143 -291 272 -503 450 -740 759 -1011
1870 -1668 3120 -1845 153 -22 550 -53 550 -43 0 3 -64 31 -265 118 -385 166
-754 346 -1075 525 -957 534 -1669 1141 -2105 1795 -248 373 -391 718 -457
1105 -19 111 -16 472 5 583 58 308 160 547 342 802 309 431 816 772 1335 897
84 20 120 23 315 22 234 0 350 -12 555 -59 467 -107 827 -340 1153 -745 102
-127 106 -110 -36 -178 -256 -122 -472 -276 -683 -487 -347 -346 -552 -738
-635 -1210 -30 -172 -32 -499 -5 -675 118 -763 586 -1513 1336 -2141 113 -94
343 -269 428 -324 l42 -28 142 7 c121 6 295 25 481 52 26 4 47 10 47 13 0 4
-53 43 -117 87 -707 480 -1285 1033 -1604 1535 -229 359 -321 659 -322 1049
-1 439 132 777 408 1038 259 245 620 381 1015 382 506 0 959 -268 1217 -721
l49 -87 50 60 c212 259 553 458 879 514 137 23 400 16 544 -15 580 -126 955
-500 1071 -1070 26 -128 40 -353 30 -471 -5 -52 -7 -96 -6 -97 5 -5 122 209
189 343 234 469 400 1028 456 1539 26 234 31 392 31 1011 l0 654 298 0 c163 0
317 5 341 11 143 33 211 178 147 314 -27 58 -181 212 -566 565 -135 124 -594
556 -1020 960 -1339 1270 -2878 2729 -3324 3153 -236 224 -453 423 -482 443
-72 50 -115 53 -181 14z m-803 -3500 c319 -82 569 -324 666 -645 25 -81 27
-106 28 -250 1 -172 -11 -236 -70 -378 -78 -187 -274 -390 -455 -470 -156 -69
-221 -82 -404 -81 -143 1 -169 3 -248 27 -325 99 -564 346 -649 670 -18 67
-22 109 -22 232 1 132 4 161 28 240 71 243 223 437 441 565 75 43 224 96 315
110 90 15 274 5 370 -20z m2755 -2008 c456 -124 750 -541 704 -999 -33 -328
-227 -607 -524 -756 -244 -122 -582 -120 -825 3 -421 214 -621 703 -470 1148
109 320 392 560 733 622 81 14 301 4 382 -18z"/>
<path d="M12858 8180 c-150 -18 -283 -78 -385 -173 -80 -76 -130 -151 -167
-257 -29 -81 -31 -92 -31 -245 0 -164 4 -194 51 -353 14 -45 22 -87 19 -92 -3
-6 -28 -10 -55 -10 -74 0 -248 -37 -363 -76 -345 -120 -660 -358 -847 -640
-208 -316 -214 -621 -15 -853 45 -52 158 -150 184 -159 5 -2 13 18 17 45 17
117 103 264 210 362 101 92 230 167 668 388 476 238 627 318 822 434 408 242
620 496 673 806 42 250 -71 537 -273 690 -145 109 -321 156 -508 133z"/>
<path d="M16887 4905 c-78 -20 -127 -61 -167 -139 l-35 -69 -3 -643 -3 -644
-83 68 c-365 295 -857 305 -1223 26 -552 -422 -616 -1289 -132 -1799 372 -392
937 -430 1355 -93 l84 68 5 -27 c24 -109 89 -201 175 -246 64 -33 118 -32 177
4 90 56 97 208 11 272 l-28 21 0 1441 0 1441 31 30 c43 41 59 76 59 129 0 117
-103 192 -223 160z m-729 -1570 c257 -82 456 -326 508 -626 21 -119 14 -290
-16 -404 -25 -99 -84 -219 -150 -306 -147 -196 -400 -306 -621 -269 -152 25
-267 86 -380 200 -161 162 -241 365 -241 615 0 250 80 453 241 615 186 187
422 250 659 175z"/>
<path d="M464 3691 c-109 -50 -134 -189 -48 -272 l34 -33 0 -1349 0 -1350 -39
-42 c-64 -70 -63 -165 3 -231 81 -81 213 -62 305 42 71 81 71 79 71 686 0 296
4 538 8 538 5 0 17 -10 28 -21 27 -30 119 -99 189 -142 178 -109 420 -156 630
-123 226 35 408 127 570 290 148 150 249 327 307 544 31 113 32 124 32 317 0
194 -1 203 -32 320 -90 331 -298 597 -577 738 -251 126 -539 137 -805 32 -99
-39 -259 -143 -314 -204 -27 -30 -33 -27 -40 20 -20 124 -156 260 -261 259
-11 0 -38 -9 -61 -19z m1194 -342 c74 -18 201 -83 268 -138 117 -95 220 -261
266 -427 32 -115 32 -363 0 -478 -46 -166 -149 -332 -266 -427 -66 -55 -195
-121 -266 -137 -276 -65 -547 50 -714 301 -101 152 -147 310 -147 502 0 251
81 455 248 622 167 167 391 234 611 182z"/>
<path d="M3920 3695 c-412 -60 -779 -356 -920 -742 -55 -152 -72 -268 -67
-443 5 -168 22 -257 77 -398 77 -200 243 -406 426 -528 460 -307 1053 -259
1448 116 345 327 457 809 292 1258 -93 255 -320 504 -571 630 -199 99 -462
140 -685 107z m277 -336 c407 -55 713 -404 713 -814 0 -348 -224 -663 -553
-776 -308 -106 -635 -25 -863 213 -148 154 -224 344 -224 563 0 219 76 409
224 563 104 109 218 181 351 221 127 39 228 47 352 30z"/>
<path d="M6215 3695 c-182 -29 -340 -108 -450 -226 -109 -116 -156 -222 -163
-366 -8 -164 51 -296 193 -431 130 -125 243 -191 505 -297 302 -122 455 -216
499 -308 28 -57 27 -92 -5 -155 -59 -120 -227 -192 -443 -192 -170 0 -317 43
-471 135 -85 52 -129 57 -194 25 -120 -58 -125 -209 -9 -294 174 -128 426
-206 668 -206 379 0 676 165 782 436 24 60 27 83 27 185 l1 115 -43 87 c-96
195 -290 332 -703 496 -185 73 -285 130 -369 207 -71 66 -100 117 -100 174 0
73 64 168 145 215 186 110 415 95 679 -44 109 -58 141 -62 206 -28 103 52 126
174 49 262 -39 44 -243 146 -359 179 -92 26 -235 47 -315 45 -27 -1 -86 -7
-130 -14z"/>
<path d="M7525 3698 c-64 -22 -115 -93 -115 -158 0 -44 24 -96 59 -128 l30
-27 3 -625 c3 -611 4 -627 26 -705 90 -323 327 -560 647 -646 121 -33 334 -31
467 4 154 40 287 106 394 193 30 24 55 41 55 37 1 -5 1 -33 0 -63 -9 -283
-199 -541 -457 -621 -66 -20 -99 -24 -199 -24 -190 1 -303 41 -422 148 -73 66
-96 77 -159 77 -107 0 -180 -94 -159 -206 13 -71 172 -212 309 -274 180 -82
438 -111 626 -72 410 85 703 393 791 830 8 40 13 343 16 1001 l4 945 34 37
c62 69 68 155 13 224 -23 29 -90 64 -123 65 -75 0 -184 -81 -233 -174 l-27
-51 -6 -580 c-7 -650 -6 -641 -81 -795 -34 -69 -59 -102 -133 -176 -73 -74
-106 -98 -175 -132 -360 -176 -714 -45 -846 313 -17 46 -19 101 -24 705 l-5
655 -28 57 c-47 96 -158 180 -233 177 -11 0 -32 -5 -49 -11z"/>
<path d="M10655 3696 c-405 -66 -730 -359 -863 -776 -40 -126 -55 -229 -55
-375 0 -146 15 -249 55 -375 200 -628 835 -948 1404 -707 90 38 195 103 267
165 53 46 67 46 67 2 0 -50 38 -134 77 -172 78 -75 197 -100 264 -55 101 68
107 205 12 280 l-25 20 7 391 c8 477 8 428 0 897 l-7 387 32 28 c44 39 60 74
60 129 0 124 -113 203 -225 160 -88 -33 -195 -169 -195 -247 0 -16 -4 -28 -9
-28 -5 0 -33 21 -63 46 -215 185 -531 275 -803 230z m317 -352 c118 -30 213
-88 319 -193 83 -84 101 -109 147 -201 73 -149 82 -194 82 -405 0 -210 -9
-256 -82 -403 -41 -84 -66 -120 -133 -190 -201 -211 -456 -279 -714 -192 -331
111 -553 493 -511 876 26 226 106 392 261 540 174 165 405 227 631 168z"/>
<path d="M12544 3691 c-109 -50 -134 -189 -48 -272 l34 -33 0 -843 0 -844 -35
-34 c-108 -108 -32 -285 121 -285 90 1 176 56 222 144 l27 51 6 665 c5 602 7
670 23 720 30 94 78 172 146 240 178 179 443 211 699 84 171 -85 301 -239 360
-429 l25 -80 6 -585 5 -585 28 -54 c33 -62 100 -131 153 -156 50 -23 129 -17
174 15 37 26 69 90 70 138 0 40 -31 104 -64 130 l-25 19 -3 559 -4 559 -27
100 c-101 374 -389 660 -760 756 -104 27 -289 36 -393 20 -137 -23 -291 -87
-387 -163 -21 -17 -39 -29 -41 -27 -2 2 -13 22 -24 45 -27 54 -123 141 -170
154 -51 14 -71 12 -118 -9z"/>
<path d="M17635 3698 c-64 -22 -115 -93 -115 -160 0 -42 35 -112 65 -132 l25
-16 0 -510 c0 -290 4 -542 10 -587 48 -367 303 -697 642 -832 136 -55 237 -74
388 -75 197 0 335 40 497 146 58 38 78 46 84 36 5 -7 9 -16 9 -20 0 -18 88
-113 128 -139 136 -86 303 29 262 182 -7 26 -26 56 -46 76 l-34 32 0 843 0
844 34 33 c89 86 58 232 -59 276 -99 39 -235 -30 -289 -145 -20 -44 -21 -62
-26 -710 l-6 -665 -26 -73 c-35 -96 -76 -159 -153 -231 -113 -106 -265 -159
-415 -146 -103 9 -152 22 -245 65 -156 72 -259 173 -336 325 -75 150 -72 124
-78 775 l-6 585 -28 57 c-47 96 -158 180 -233 177 -11 0 -32 -5 -49 -11z"/>
</g>
</svg>
